<svg viewBox="0 0 181 53" xmlns="http://www.w3.org/2000/svg" fill-rule="evenodd" clip-rule="evenodd" stroke-linejoin="round" stroke-miterlimit="1.414"><path d="M0 53.05V0h37.024v53.05H0zm31.67-5.342V5.342H5.335v42.366H31.67z" fill="#fc0" fill-rule="nonzero"/><path d="M61.622 23.797h-2.297c-3.007-4.246-5.99-8.468-8.97-13.24h-.025v13.24h-2.533V5.333h2.295c3.008 4.22 5.988 8.413 8.942 13.16h.054V5.333h2.534v18.464zm6.013-7.307c.737-2.426 1.477-4.67 2.135-7.518h.053c.738 2.85 1.4 5.092 2.085 7.52h-4.273zM68.85 5.334l-6.386 18.464h2.745l1.6-5.04h5.56l1.45 5.04h3.53L71.48 5.333h-2.63zm11.5 18.463V7.812h-4.855v-2.48h12.873v2.48h-4.853v15.985H80.35zm9.046 0V5.333h3.14v18.464h-3.14zm12.9-2.32c-3.3 0-4.46-3.643-4.46-7.175 0-3.404 1.32-6.65 4.46-6.65 3.137 0 4.457 3.246 4.457 6.65 0 3.532-1.16 7.175-4.457 7.175zm0 2.636c4.826 0 7.833-4.297 7.833-9.81 0-5.174-3.33-9.288-7.84-9.288s-7.84 4.115-7.84 9.287c0 5.514 3 9.81 7.83 9.81zm23.582-.316h-2.295c-3.008-4.246-5.987-8.468-8.968-13.24h-.03v13.24h-2.53V5.333h2.297c3.007 4.22 5.99 8.413 8.94 13.16h.055V5.333h2.53v18.464zm6.015-7.307c.738-2.426 1.477-4.67 2.136-7.518h.05c.74 2.85 1.39 5.092 2.08 7.52h-4.28zm1.212-11.157l-6.384 18.464h2.75l1.61-5.04h5.56l1.46 5.04h3.54l-5.89-18.464h-2.63zm9.445 0h3.138v15.984h6.25v2.48h-9.39V5.332zM59.672 39.245v7.622c-1.688.663-3.456 1.135-5.25 1.135-5.433 0-8.863-4.22-8.863-9.654 0-5.037 3.43-9.445 8.97-9.445 1.71 0 3.42.636 4.48 1.428l-1.03 2.19c-.85-.53-2.17-.97-3.38-.97-3.38 0-5.68 2.67-5.68 6.86 0 4.38 2.64 6.97 5.35 6.97.843 0 1.555-.1 2.214-.44v-5.68h3.162zm11.315-7.543H65.71v5.063h5.17v2.48h-5.17v5.96h6.228v2.482h-9.393V29.222h8.44v2.48h.002zm9.76 13.663c-3.297 0-4.457-3.64-4.457-7.175 0-3.402 1.318-6.648 4.457-6.648 3.14 0 4.46 3.246 4.46 6.648 0 3.537-1.16 7.175-4.46 7.175zm0 2.637c4.83 0 7.836-4.3 7.836-9.812 0-5.17-3.325-9.288-7.836-9.288-4.51 0-7.833 4.117-7.833 9.288 0 5.512 3.006 9.812 7.833 9.812zm23.03-8.757v7.622c-1.69.663-3.457 1.135-5.25 1.135-5.434 0-8.862-4.22-8.862-9.654 0-5.037 3.43-9.445 8.968-9.445 1.718 0 3.43.636 4.485 1.428l-1.03 2.19c-.843-.53-2.162-.97-3.375-.97-3.377 0-5.673 2.67-5.673 6.86 0 4.38 2.638 6.97 5.354 6.97.844 0 1.56-.1 2.218-.44v-5.68h3.166zm6.065-7.543h1.4c1.874 0 2.925 1.083 2.925 2.98 0 2.477-1.5 3.587-3.006 3.665-.31.026-1.05.054-1.31.082V31.7zm8.02 15.986l-3.718-7.65c2.03-1.082 3.193-3.272 3.193-5.485 0-3.59-2.19-5.33-5.728-5.33h-4.94V47.69h3.16v-6.966h1.42l2.98 6.964h3.61v-.002zm5.224-7.31c.735-2.424 1.475-4.665 2.135-7.514h.06c.74 2.85 1.4 5.09 2.09 7.514h-4.27zm1.21-11.156l-6.38 18.467h2.742l1.61-5.04h5.566l1.45 5.04h3.536l-5.884-18.47h-2.64zm14.46 0h-4.935V47.69h3.17v-6.965h1.43c3.78 0 6.07-3.062 6.07-6.172 0-3.59-2.19-5.33-5.72-5.33zm-.447 9.126c-.33.026-1.1.05-1.33.077v-6.723h1.42c1.85 0 2.9 1.083 2.9 2.98 0 2.477-1.51 3.588-3.01 3.666zm20.83 9.34h-3.17v-8.893h-6.57v8.893h-3.14V29.222h3.13v7.098h6.57v-7.046h3.163v18.414zm3.03-18.466h3.13V47.69h-3.14zm17.38 3.35c-.77-.477-2.03-1.03-3.25-1.03-3.22 0-5.568 2.665-5.568 6.86 0 4.377 2.583 6.963 5.643 6.963 1.213 0 2.35-.396 3.165-.924l.873 2.3c-.95.66-2.64 1.27-4.17 1.27-5.438 0-8.866-4.22-8.866-9.65 0-5.03 3.403-9.44 8.92-9.44 1.63 0 3.16.69 4.24 1.43l-1.003 2.247z" fill-rule="nonzero"/></svg>